<?xml version="1.0" standalone="no"?>
<!DOCTYPE svg PUBLIC "-//W3C//DTD SVG 20010904//EN"
 "http://www.w3.org/TR/2001/REC-SVG-20010904/DTD/svg10.dtd">
<svg version="1.0" xmlns="http://www.w3.org/2000/svg"
 width="500.000000pt" height="500.000000pt" viewBox="0 0 500.000000 500.000000"
 preserveAspectRatio="xMidYMid meet">

<g transform="translate(0.000000,500.000000) scale(0.100000,-0.100000)"
fill="#000000" stroke="none">
<path d="M2355 4784 c-779 -58 -1459 -485 -1844 -1158 -41 -72 -48 -92 -39
-104 16 -19 713 -561 731 -567 9 -4 23 20 45 72 69 169 171 321 308 457 198
199 423 319 704 376 91 19 128 21 275 17 102 -3 198 -11 240 -21 210 -48 384
-131 534 -256 33 -27 64 -50 68 -50 4 0 153 145 330 322 243 243 318 324 310
333 -44 42 -209 169 -295 226 -163 108 -402 219 -572 266 -105 28 -126 33
-265 57 -138 25 -404 39 -530 30z"/>
<path d="M2507 2904 c-3 -4 -6 -197 -7 -429 0 -369 2 -423 15 -429 10 -4 15 1
16 17 1 21 1 20 8 -3 l8 -25 5 25 c5 23 5 23 7 3 0 -13 6 -23 12 -23 5 0 7 5
4 10 -4 7 180 10 544 10 361 0 551 -3 551 -10 0 -5 10 -10 21 -10 18 0 19 3 9
15 -13 16 -10 51 5 48 10 -3 12 -7 14 -44 0 -11 6 -17 11 -14 6 4 8 11 5 16
-3 5 1 6 10 2 12 -4 13 -8 5 -13 -16 -10 -2 -33 16 -26 17 7 36 -27 28 -49 -4
-9 -13 -14 -21 -11 -8 3 -16 6 -18 6 -2 0 -1 9 2 20 4 15 0 20 -13 20 -16 0
-17 -2 -4 -10 8 -5 10 -10 3 -10 -14 0 -10 -33 5 -38 14 -4 6 -22 -9 -22 -6 0
-7 5 -4 10 3 6 1 10 -4 10 -14 0 -14 -6 -1 -31 10 -18 -3 -29 -13 -11 -2 4 -2
1 -1 -5 2 -7 -2 -13 -9 -13 -8 0 -9 -3 -1 -8 17 -12 24 -41 14 -64 -8 -22 -9
-21 -11 7 -1 17 -1 35 0 40 1 6 -6 1 -14 -9 -8 -11 -15 -25 -15 -30 0 -6 5 -4
10 4 8 13 10 12 10 -2 0 -10 -7 -18 -15 -18 -8 0 -15 -9 -15 -19 0 -27 -11
-52 -19 -46 -9 5 -7 -23 4 -48 4 -10 1 -31 -9 -50 -8 -17 -16 -27 -16 -22 0 6
-9 16 -20 22 -16 11 -18 10 -13 -4 4 -9 2 -14 -3 -11 -5 3 -19 -8 -32 -23 -13
-16 -18 -29 -12 -29 6 0 8 -4 5 -10 -3 -5 -1 -10 4 -10 6 0 11 5 11 11 0 5 4
7 10 4 6 -3 7 1 4 9 -4 11 0 16 11 16 9 0 14 -4 10 -9 -3 -5 5 -17 17 -25 12
-9 18 -16 12 -16 -5 0 -15 5 -22 12 -10 10 -17 7 -35 -11 -12 -13 -16 -21 -9
-17 6 4 12 2 12 -3 0 -6 -9 -11 -20 -11 -15 0 -20 7 -20 25 0 21 -2 24 -13 13
-8 -7 -12 -26 -11 -43 3 -21 1 -26 -5 -15 -6 8 -7 18 -5 22 3 4 0 8 -5 8 -6 0
-11 -4 -11 -9 0 -4 -11 -19 -24 -32 -25 -26 -28 -75 -5 -89 6 -4 8 -13 5 -19
-4 -6 -2 -10 5 -9 6 2 14 -3 16 -9 4 -10 -3 -10 -28 -1 -19 6 -28 13 -22 15
10 4 10 8 0 18 -7 7 -16 10 -21 7 -5 -3 -6 0 -2 7 4 6 11 9 15 7 3 -3 7 4 7
14 0 20 -8 16 -44 -18 -8 -6 -23 -17 -34 -23 -11 -6 -17 -17 -14 -25 3 -8 1
-14 -5 -14 -6 0 -7 -4 -4 -10 3 -5 2 -10 -3 -10 -17 0 -22 13 -9 29 11 14 10
14 -6 2 -16 -13 -16 -16 -3 -29 11 -11 19 -12 28 -5 7 6 28 14 46 18 19 4 30
11 26 17 -4 7 -2 8 5 4 9 -6 9 -11 0 -22 -14 -17 -15 -15 31 -37 19 -9 29 -17
22 -17 -7 0 -22 5 -33 10 -11 7 -19 7 -19 1 0 -5 6 -12 13 -14 7 -3 5 -6 -5
-6 -11 -1 -21 10 -27 32 -5 17 -10 26 -10 19 -1 -7 -6 -10 -12 -6 -6 3 -15 0
-20 -7 -13 -21 -11 -26 14 -33 13 -3 29 -17 37 -30 8 -16 20 -24 34 -23 12 1
20 -3 19 -10 -1 -6 11 -14 27 -18 17 -4 30 -13 30 -21 0 -8 10 -18 23 -23 13
-5 39 -24 59 -43 19 -18 44 -40 54 -48 28 -22 138 -114 144 -120 9 -10 30 -5
39 8 6 10 12 7 25 -13 9 -14 27 -30 39 -35 20 -8 20 -9 2 -9 -17 -1 -15 -5 14
-31 18 -17 37 -28 42 -25 5 3 6 -1 3 -9 -9 -24 12 -19 42 9 33 31 44 33 18 3
-17 -19 -17 -21 -2 -15 10 3 20 1 24 -5 5 -7 2 -8 -6 -3 -9 6 -11 4 -5 -5 6
-10 11 -9 21 4 7 10 15 16 18 14 2 -2 14 7 26 20 11 12 18 22 15 22 -4 0 7 12
24 26 17 14 29 30 25 35 -3 5 -1 9 3 9 5 0 18 7 29 16 10 8 13 13 7 9 -9 -4
-11 -1 -7 9 3 9 9 14 13 11 8 -4 18 7 64 68 15 20 25 37 21 37 -4 0 1 9 11 20
10 11 14 20 9 20 -5 0 -2 5 6 10 12 7 11 9 -5 9 -11 0 -32 3 -47 6 -25 7 -26
6 -21 -31 5 -35 4 -36 -12 -21 -10 11 -14 25 -10 37 5 16 2 20 -17 20 -40 0
-50 -14 -50 -71 0 -31 4 -55 11 -57 15 -5 -40 -48 -56 -44 -7 2 -13 -3 -13 -9
0 -8 -5 -6 -12 4 -10 12 -26 16 -60 14 -44 -2 -59 -13 -41 -31 7 -6 10 -20 15
-66 2 -14 8 -28 13 -32 6 -5 3 -8 -7 -8 -9 0 -25 -3 -35 -6 -16 -5 -16 -4 1
10 11 9 16 16 12 16 -5 0 -3 7 4 15 9 11 9 15 1 15 -7 0 -10 4 -7 9 4 5 0 12
-6 14 -10 4 -9 8 2 16 13 9 8 15 -11 13 -4 -1 -5 8 -2 18 4 15 0 20 -13 20
-16 0 -17 -2 -4 -10 8 -5 10 -10 5 -10 -6 0 -16 5 -22 11 -13 13 -47 4 -39
-10 4 -5 0 -12 -6 -15 -7 -3 -3 -3 10 0 12 3 22 1 22 -4 0 -13 -27 -23 -45
-16 -18 7 -20 30 -2 37 7 4 6 6 -5 6 -9 1 -18 5 -20 10 -1 5 -12 11 -23 13
-11 1 -22 6 -25 9 -3 4 -11 1 -18 -7 -11 -12 -10 -14 5 -14 15 0 16 -2 3 -10
-18 -12 -30 -13 -29 -2 4 24 -3 34 -21 29 -13 -3 -20 0 -20 10 0 8 4 12 8 9
11 -6 9 25 -2 43 -7 11 -10 11 -18 -3 -5 -9 -13 -14 -19 -11 -14 9 -11 25 6
25 17 0 20 25 5 35 -15 9 -2 25 21 25 24 0 26 -20 2 -21 -15 0 -15 -2 2 -9 11
-5 14 -9 8 -9 -20 -1 -15 -15 17 -48 17 -17 38 -30 48 -28 9 1 20 -2 23 -8 4
-5 12 -6 18 -3 14 9 15 53 1 61 -6 4 -5 13 2 24 12 20 5 51 -12 51 -5 0 -10
-8 -10 -17 0 -15 -2 -16 -10 -3 -5 8 -10 11 -10 6 0 -5 -6 -4 -12 1 -7 6 -30
11 -50 11 -28 1 -42 -5 -56 -23 -11 -14 -26 -25 -33 -25 -10 0 -10 3 -1 12 21
21 13 37 -18 36 -20 -1 -30 -6 -30 -17 0 -14 -2 -14 -10 -1 -9 15 -13 16 -45
19 -8 0 -15 11 -15 24 0 29 -15 51 -28 43 -15 -9 -22 7 -11 24 6 11 9 12 9 2
0 -7 5 -10 10 -7 6 4 8 11 5 16 -4 5 -1 9 4 9 19 0 12 22 -8 27 -25 6 -34 30
-14 37 8 3 18 4 22 1 4 -2 8 13 7 35 0 30 -3 36 -13 28 -10 -8 -13 -3 -13 21
0 18 -6 34 -14 37 -8 3 -12 12 -9 20 3 8 9 11 14 8 5 -3 7 -9 4 -14 -9 -14 15
-23 29 -11 7 6 16 8 20 4 4 -4 11 -1 16 7 7 10 10 11 10 3 0 -7 5 -13 11 -13
6 0 9 9 6 20 -3 11 -1 18 4 14 5 -3 9 -12 9 -20 0 -8 9 -14 21 -14 11 0 18 4
15 9 -3 5 1 14 8 20 12 10 13 8 9 -9 -5 -18 -2 -21 13 -18 17 3 19 14 21 116
2 62 -1 111 -5 109 -4 -3 -12 1 -18 7 -9 9 -8 17 3 32 15 18 15 18 8 -3 -4
-15 -2 -23 5 -23 6 0 11 12 10 28 -4 55 -2 60 30 56 25 -3 30 0 31 19 0 22 0
22 9 1 6 -17 16 -21 47 -20 36 1 38 3 41 35 2 18 -2 39 -8 45 -8 8 -9 6 -4 -9
6 -17 5 -18 -7 -7 -11 10 -11 17 -2 31 7 11 14 43 17 73 3 29 3 45 0 36 -4
-14 -9 -16 -25 -7 -19 10 -19 11 5 30 21 16 25 28 23 59 -3 47 -11 57 -32 40
-10 -8 -15 -9 -15 -1 0 7 -23 11 -61 11 -53 0 -62 -3 -66 -20 -5 -20 -12 -20
-564 -20 -479 1 -559 3 -559 15 0 9 6 12 15 9 8 -4 15 -2 15 4 0 6 -6 12 -12
14 -10 4 -13 89 -13 375 0 204 -3 369 -7 367 -3 -2 -8 2 -11 8 -2 8 -8 9 -13
4 -5 -5 -4 -11 3 -13 9 -3 12 -98 11 -391 0 -234 -4 -361 -8 -322 -4 36 -6
203 -5 373 2 169 0 307 -4 307 -5 0 -7 16 -5 35 2 36 2 39 -9 29z m10 -821
c-3 -10 -5 -2 -5 17 0 19 2 27 5 18 2 -10 2 -26 0 -35z m1265 28 c-8 -4 -13
-11 -13 -15 3 -24 0 -29 -11 -18 -13 13 5 42 26 42 7 0 6 -4 -2 -9z m43 -21
c-3 -5 0 -10 7 -10 10 0 9 -3 -2 -10 -9 -6 -17 -5 -22 3 -12 19 -9 27 8 27 8
0 12 -4 9 -10z m-35 -152 c0 6 5 12 11 12 6 0 9 -7 6 -14 -4 -11 -1 -13 11 -9
11 3 8 -1 -6 -11 -12 -10 -19 -23 -16 -29 5 -8 4 -9 -3 -2 -6 6 -13 24 -17 40
-5 22 -4 26 4 15 6 -10 10 -11 10 -2z m-39 -78 l-9 -25 -10 25 c-11 29 -6 42
8 20 7 -11 10 -8 11 15 1 20 3 23 6 10 2 -12 0 -32 -6 -45z m89 -30 c0 -5 -2
-10 -4 -10 -3 0 -8 5 -11 10 -3 6 -1 10 4 10 6 0 11 -4 11 -10z m-169 -183
c-10 -9 -11 -8 -5 6 3 10 9 15 12 12 3 -3 0 -11 -7 -18z m-71 -34 c-8 -3 -22
-11 -30 -17 -13 -10 -13 -9 -1 7 7 9 21 17 30 16 13 0 14 -1 1 -6z m78 -20
c-5 -26 -33 -28 -35 -3 -1 14 4 20 18 20 14 0 19 -6 17 -17z m2 -98 c0 -8 -4
-15 -10 -15 -5 0 -7 7 -4 15 4 8 8 15 10 15 2 0 4 -7 4 -15z m620 -360 c0 -2
-7 -11 -16 -19 -9 -9 -17 -22 -18 -29 -2 -18 -16 -37 -26 -37 -12 0 -1 30 17
48 9 9 10 19 3 31 -5 10 -7 21 -3 24 5 6 43 -10 43 -18z m-475 -14 c3 -5 1
-12 -5 -16 -6 -4 -7 -12 -3 -18 3 -7 -3 -3 -15 7 -12 11 -22 28 -22 38 0 15 3
17 19 8 11 -5 22 -14 26 -19z m370 -1 c9 7 16 6 25 -5 8 -9 8 -15 2 -15 -6 0
-14 -9 -17 -21 -10 -30 -27 -18 -31 21 -1 19 0 29 3 22 3 -9 9 -10 18 -2z
m-358 -62 c-3 -8 -6 -5 -6 6 -1 11 2 17 5 13 3 -3 4 -12 1 -19z m343 -70 c0
-5 -9 -8 -20 -8 -11 0 -20 5 -20 11 0 6 7 9 14 6 11 -4 13 -1 10 11 -5 14 -4
15 5 2 6 -8 11 -18 11 -22z m-350 -14 c0 -8 -5 -12 -10 -9 -6 4 -8 11 -5 16 9
14 15 11 15 -7z m124 -23 c-2 -2 0 -9 4 -16 4 -6 -1 -2 -10 8 -21 23 -24 43
-4 25 8 -7 12 -15 10 -17z m105 -7 c-15 -16 -25 -20 -30 -13 -9 15 22 47 39
41 9 -3 7 -11 -9 -28z m111 17 c-8 -6 -18 -7 -24 -4 -5 3 -6 1 -2 -5 3 -6 2
-13 -4 -17 -5 -3 -10 3 -10 14 0 16 6 21 28 21 20 0 23 -3 12 -9z m-65 -58
c-10 -22 -12 -29 -14 -45 -1 -9 -4 -9 -13 0 -8 8 -8 15 2 27 7 8 9 15 5 15 -4
0 -2 7 5 15 16 19 25 12 15 -12z m-151 -28 c-4 -8 -11 -15 -16 -15 -6 0 -5 6
2 15 7 8 14 15 16 15 2 0 1 -7 -2 -15z"/>
<path d="M4267 1135 c3 -8 9 -12 14 -9 12 7 11 11 -5 17 -10 4 -13 1 -9 -8z"/>
<path d="M2535 2900 c4 -6 11 -8 16 -5 14 9 11 15 -7 15 -8 0 -12 -5 -9 -10z"/>
<path d="M2678 2903 c23 -2 61 -2 85 0 23 2 4 4 -43 4 -47 0 -66 -2 -42 -4z"/>
<path d="M3377 2903 c145 -2 381 -2 525 0 145 1 27 2 -262 2 -289 0 -407 -1
-263 -2z"/>
<path d="M4378 2903 c34 -2 90 -2 125 0 34 2 6 3 -63 3 -69 0 -97 -1 -62 -3z"/>
<path d="M4644 2817 c1 -79 3 -92 18 -95 14 -3 17 3 16 22 -1 14 -5 26 -9 26
-3 0 -4 11 -1 25 2 14 0 25 -5 25 -5 0 -8 18 -8 41 0 22 -2 42 -6 44 -3 3 -6
-37 -5 -88z m13 -79 c-3 -7 -5 -2 -5 12 0 14 2 19 5 13 2 -7 2 -19 0 -25z"/>
<path d="M4641 2693 c-1 -13 4 -23 9 -23 6 0 10 -4 10 -10 0 -5 -6 -10 -14
-10 -11 0 -15 -12 -14 -40 0 -22 4 -40 8 -40 4 0 10 -14 12 -30 3 -23 1 -30
-9 -26 -10 4 -13 -6 -12 -37 0 -33 2 -38 9 -22 8 18 9 18 9 -4 1 -19 4 -22 12
-14 9 9 8 18 -5 37 -9 15 -12 26 -7 26 14 0 21 -15 26 -54 4 -31 2 -34 -16
-31 -20 4 -21 1 -15 -33 3 -20 6 -45 6 -54 0 -10 5 -18 10 -18 6 0 10 16 8 35
-1 19 0 37 3 40 10 9 10 -92 0 -116 -5 -13 -11 -18 -12 -11 -1 6 -2 16 -3 21
0 5 -3 12 -6 15 -3 3 -6 -33 -6 -79 0 -47 4 -85 8 -85 4 0 8 -5 8 -10 0 -6 -6
-9 -12 -8 -9 2 -14 -16 -16 -59 -2 -52 0 -63 13 -63 8 0 15 5 15 11 0 5 -5 7
-10 4 -11 -7 -7 35 4 54 4 5 2 12 -4 16 -5 3 -10 14 -10 23 0 13 2 13 14 -4
15 -19 15 -19 14 1 0 11 1 31 4 45 3 14 3 19 1 13 -7 -21 -22 -14 -16 7 3 11
10 20 15 20 6 0 8 14 5 35 -3 19 -2 37 3 40 11 7 9 245 -2 245 -4 0 -8 17 -8
38 0 21 -8 48 -17 62 -14 20 -14 23 -1 18 8 -4 21 -2 29 3 10 6 6 9 -16 10
-24 1 -25 3 -7 6 21 4 32 33 12 33 -6 0 -15 10 -20 23 l-9 22 0 -22z m29 -487
c0 -26 -6 -18 -14 19 -5 22 -4 26 4 15 5 -8 10 -24 10 -34z"/>
<path d="M4667 2703 c-4 -3 -7 -11 -7 -17 0 -6 5 -5 12 2 6 6 9 14 7 17 -3 3
-9 2 -12 -2z"/>
<path d="M4678 2573 c6 -65 10 -70 11 -15 0 28 -3 52 -7 52 -4 0 -6 -17 -4
-37z"/>
<path d="M4479 1967 c-6 -10 -5 -117 1 -117 5 0 6 9 3 20 -3 11 0 20 6 20 5 0
8 8 5 18 -5 16 -5 16 6 -1 6 -9 8 -27 5 -38 -5 -14 -3 -19 4 -15 7 5 9 1 5 -8
-3 -9 -10 -16 -15 -16 -5 0 -9 -8 -10 -17 -1 -13 -3 -11 -8 5 -5 19 -8 -264
-2 -305 0 -7 8 -10 19 -6 16 6 16 5 1 -13 -9 -10 -14 -25 -12 -31 3 -7 -3 -13
-12 -13 -9 0 -14 -4 -11 -9 4 -5 -3 -7 -14 -4 -11 3 -20 10 -20 15 0 5 4 7 9
4 5 -3 14 1 21 9 7 8 11 15 9 16 -26 6 -120 5 -125 -2 -3 -5 -10 -7 -15 -4 -9
6 -11 -21 -14 -185 -2 -108 10 -134 41 -97 17 19 17 20 1 8 -9 -8 -21 -11 -24
-7 -11 10 -12 37 -2 30 5 -3 9 0 9 7 0 7 3 9 6 6 4 -4 3 -12 -2 -20 -5 -7 -2
-5 7 5 9 9 19 14 23 11 5 -6 10 29 7 50 -1 4 10 12 24 17 14 5 25 12 25 14 0
3 -6 3 -13 0 -8 -3 -14 2 -14 11 0 8 5 15 10 15 5 0 6 7 3 16 -6 15 -4 15 10
3 14 -11 18 -10 27 6 15 26 15 38 2 47 -6 5 -4 8 5 8 21 0 53 57 52 92 0 17 5
31 14 35 7 3 11 9 8 14 -3 5 -10 7 -15 4 -5 -4 -9 1 -9 10 0 10 -6 15 -13 12
-9 -3 -13 2 -11 16 1 12 3 23 4 25 2 1 3 6 4 11 0 5 4 12 8 16 4 4 4 14 1 23
-4 10 -2 13 5 8 16 -10 15 -63 0 -69 -8 -2 -9 -8 -4 -13 5 -5 11 -4 13 4 3 6
13 12 23 12 10 0 20 8 24 18 3 9 9 24 12 32 5 13 4 13 -5 0 -9 -12 -11 -11
-11 8 0 15 -6 22 -20 22 -21 0 -27 24 -9 36 8 4 7 9 -2 15 -10 6 -6 9 14 9 32
0 31 -1 13 35 -8 15 -12 34 -9 42 6 15 52 37 61 29 2 -3 -8 -8 -23 -12 -20 -5
-23 -9 -13 -15 10 -7 9 -9 -5 -9 -10 0 -16 -4 -13 -9 3 -5 16 -7 29 -5 l22 5
-22 -10 c-13 -6 -23 -13 -23 -16 0 -4 10 -4 23 -1 12 3 16 3 10 0 -19 -8 -16
-24 3 -17 8 3 13 12 10 19 -3 8 -2 14 3 14 4 0 8 6 8 13 1 15 10 64 19 101 8
35 -5 44 -61 44 -39 0 -42 -2 -39 -24 1 -16 -3 -24 -13 -24 -11 0 -14 7 -9 23
4 18 1 23 -14 24 -11 1 -20 1 -21 0z m136 -38 c-6 -31 -10 -32 -23 -4 -10 22
-9 25 8 25 14 0 18 -6 15 -21z m-40 -49 c3 -5 1 -10 -4 -10 -6 0 -11 5 -11 10
0 6 2 10 4 10 3 0 8 -4 11 -10z m-80 -100 c3 -5 1 -10 -4 -10 -6 0 -11 5 -11
10 0 6 2 10 4 10 3 0 8 -4 11 -10z m4 -241 c-13 -26 -20 -21 -12 9 3 12 9 19
14 16 5 -3 4 -14 -2 -25z m-64 -132 c-1 -18 3 -23 15 -19 13 5 13 4 0 -12 -8
-11 -16 -14 -18 -7 -2 6 -11 11 -20 12 -9 0 -12 3 -6 5 13 5 7 41 -10 64 -9
12 -6 12 14 -2 16 -10 25 -25 25 -41z m-59 -63 c2 -18 -3 -24 -17 -24 -16 0
-19 7 -17 39 1 35 3 38 16 24 8 -8 16 -25 18 -39z"/>
<path d="M4596 1763 c-7 -8 -12 -9 -38 -12 -16 -2 -1 -14 21 -18 12 -1 21 5
24 17 6 22 4 24 -7 13z"/>
<path d="M4566 1722 c-2 -4 -1 -14 3 -21 6 -10 10 -9 14 3 6 16 -8 32 -17 18z"/>
<path d="M3612 1690 c-10 -17 0 -40 19 -40 14 0 18 32 6 45 -11 11 -15 10 -25
-5z"/>
<path d="M4525 1599 c-11 -17 -2 -18 19 -3 17 12 17 14 4 14 -9 0 -20 -5 -23
-11z"/>
<path d="M3840 926 c0 -9 7 -16 16 -16 17 0 14 22 -4 28 -7 2 -12 -3 -12 -12z"/>
<path d="M3995 820 c-3 -5 -2 -10 4 -10 6 0 8 -7 5 -15 -5 -11 -2 -13 10 -9
20 8 20 12 2 30 -9 9 -17 10 -21 4z"/>
</g>
</svg>
